<svg xmlns="http://www.w3.org/2000/svg" xmlns:xlink="http://www.w3.org/1999/xlink" contentStyleType="text/css" height="530px" preserveAspectRatio="none" style="width:833px;height:530px;background:#FFFFFF;" version="1.1" viewBox="0 0 833 530" width="833px" zoomAndPan="magnify"><defs/><g><rect fill="none" height="104.5313" style="stroke:#000000;stroke-width:1.5;" width="420.9873" x="406.3306" y="299.0938"/><line style="stroke:#181818;stroke-width:0.5;stroke-dasharray:5.0,5.0;" x1="30" x2="30" y1="81.2969" y2="449.7578"/><line style="stroke:#181818;stroke-width:0.5;stroke-dasharray:5.0,5.0;" x1="244.8936" x2="244.8936" y1="81.2969" y2="449.7578"/><line style="stroke:#181818;stroke-width:0.5;stroke-dasharray:5.0,5.0;" x1="471.3306" x2="471.3306" y1="81.2969" y2="449.7578"/><line style="stroke:#181818;stroke-width:0.5;stroke-dasharray:5.0,5.0;" x1="734.1479" x2="734.1479" y1="81.2969" y2="449.7578"/><text fill="#000000" font-family="sans-serif" font-size="14" lengthAdjust="spacing" textLength="44.8096" x="5" y="77.9951">Joueur</text><ellipse cx="30.4048" cy="13.5" fill="#E2E2F0" rx="8" ry="8" style="stroke:#181818;stroke-width:0.5;"/><path d="M30.4048,21.5 L30.4048,48.5 M17.4048,29.5 L43.4048,29.5 M30.4048,48.5 L17.4048,63.5 M30.4048,48.5 L43.4048,63.5 " fill="none" style="stroke:#181818;stroke-width:0.5;"/><text fill="#000000" font-family="sans-serif" font-size="14" lengthAdjust="spacing" textLength="44.8096" x="5" y="461.7529">Joueur</text><ellipse cx="30.4048" cy="473.5547" fill="#E2E2F0" rx="8" ry="8" style="stroke:#181818;stroke-width:0.5;"/><path d="M30.4048,481.5547 L30.4048,508.5547 M17.4048,489.5547 L43.4048,489.5547 M30.4048,508.5547 L17.4048,523.5547 M30.4048,508.5547 L43.4048,523.5547 " fill="none" style="stroke:#181818;stroke-width:0.5;"/><rect fill="#E2E2F0" height="30.2969" rx="2.5" ry="2.5" style="stroke:#181818;stroke-width:0.5;" width="153.1387" x="168.8936" y="50"/><text fill="#000000" font-family="sans-serif" font-size="14" lengthAdjust="spacing" textLength="139.1387" x="175.8936" y="69.9951">Interface Utilisateur</text><rect fill="#E2E2F0" height="30.2969" rx="2.5" ry="2.5" style="stroke:#181818;stroke-width:0.5;" width="153.1387" x="168.8936" y="448.7578"/><text fill="#000000" font-family="sans-serif" font-size="14" lengthAdjust="spacing" textLength="139.1387" x="175.8936" y="468.7529">Interface Utilisateur</text><rect fill="#E2E2F0" height="30.2969" rx="2.5" ry="2.5" style="stroke:#181818;stroke-width:0.5;" width="111.6514" x="416.3306" y="50"/><text fill="#000000" font-family="sans-serif" font-size="14" lengthAdjust="spacing" textLength="97.6514" x="423.3306" y="69.9951">Moteur du Jeu</text><rect fill="#E2E2F0" height="30.2969" rx="2.5" ry="2.5" style="stroke:#181818;stroke-width:0.5;" width="111.6514" x="416.3306" y="448.7578"/><text fill="#000000" font-family="sans-serif" font-size="14" lengthAdjust="spacing" textLength="97.6514" x="423.3306" y="468.7529">Moteur du Jeu</text><rect fill="#E2E2F0" height="30.2969" rx="2.5" ry="2.5" style="stroke:#181818;stroke-width:0.5;" width="165.1699" x="652.1479" y="50"/><text fill="#000000" font-family="sans-serif" font-size="14" lengthAdjust="spacing" textLength="151.1699" x="659.1479" y="69.9951">Console Visual Studio</text><rect fill="#E2E2F0" height="30.2969" rx="2.5" ry="2.5" style="stroke:#181818;stroke-width:0.5;" width="165.1699" x="652.1479" y="448.7578"/><text fill="#000000" font-family="sans-serif" font-size="14" lengthAdjust="spacing" textLength="151.1699" x="659.1479" y="468.7529">Console Visual Studio</text><polygon fill="#181818" points="233.4629,108.4297,243.4629,112.4297,233.4629,116.4297,237.4629,112.4297" style="stroke:#181818;stroke-width:1;"/><line style="stroke:#181818;stroke-width:1;" x1="30.4048" x2="239.4629" y1="112.4297" y2="112.4297"/><text fill="#000000" font-family="sans-serif" font-size="13" lengthAdjust="spacing" textLength="191.0581" x="37.4048" y="107.3638">S&#233;lectionne "Nouvelle Partie"</text><polygon fill="#181818" points="460.1563,137.5625,470.1563,141.5625,460.1563,145.5625,464.1563,141.5625" style="stroke:#181818;stroke-width:1;"/><line style="stroke:#181818;stroke-width:1;" x1="245.4629" x2="466.1563" y1="141.5625" y2="141.5625"/><text fill="#000000" font-family="sans-serif" font-size="13" lengthAdjust="spacing" textLength="202.6934" x="252.4629" y="136.4966">Demande d'initialisation du jeu</text><polygon fill="#181818" points="722.7329,166.6953,732.7329,170.6953,722.7329,174.6953,726.7329,170.6953" style="stroke:#181818;stroke-width:1;"/><line style="stroke:#181818;stroke-width:1;" x1="472.1563" x2="728.7329" y1="170.6953" y2="170.6953"/><text fill="#000000" font-family="sans-serif" font-size="13" lengthAdjust="spacing" textLength="219.4448" x="479.1563" y="165.6294">Affiche "Nouvelle Partie lanc&#233;e..."</text><line style="stroke:#181818;stroke-width:1;" x1="472.1563" x2="514.1563" y1="199.8281" y2="199.8281"/><line style="stroke:#181818;stroke-width:1;" x1="514.1563" x2="514.1563" y1="199.8281" y2="212.8281"/><line style="stroke:#181818;stroke-width:1;" x1="473.1563" x2="514.1563" y1="212.8281" y2="212.8281"/><polygon fill="#181818" points="483.1563,208.8281,473.1563,212.8281,483.1563,216.8281,479.1563,212.8281" style="stroke:#181818;stroke-width:1;"/><text fill="#000000" font-family="sans-serif" font-size="13" lengthAdjust="spacing" textLength="156.4063" x="479.1563" y="194.7622">Initialise les param&#232;tres</text><polygon fill="#181818" points="722.7329,237.9609,732.7329,241.9609,722.7329,245.9609,726.7329,241.9609" style="stroke:#181818;stroke-width:1;"/><line style="stroke:#181818;stroke-width:1;" x1="472.1563" x2="728.7329" y1="241.9609" y2="241.9609"/><text fill="#000000" font-family="sans-serif" font-size="13" lengthAdjust="spacing" textLength="199.1387" x="479.1563" y="236.895">Affiche "Mario pr&#234;t ! Score : 0"</text><line style="stroke:#181818;stroke-width:1;" x1="472.1563" x2="514.1563" y1="271.0938" y2="271.0938"/><line style="stroke:#181818;stroke-width:1;" x1="514.1563" x2="514.1563" y1="271.0938" y2="284.0938"/><line style="stroke:#181818;stroke-width:1;" x1="473.1563" x2="514.1563" y1="284.0938" y2="284.0938"/><polygon fill="#181818" points="483.1563,280.0938,473.1563,284.0938,483.1563,288.0938,479.1563,284.0938" style="stroke:#181818;stroke-width:1;"/><text fill="#000000" font-family="sans-serif" font-size="13" lengthAdjust="spacing" textLength="198.561" x="479.1563" y="266.0278">D&#233;marre le jeu (Mario avance)</text><path d="M406.3306,299.0938 L482.9546,299.0938 L482.9546,306.2266 L472.9546,316.2266 L406.3306,316.2266 L406.3306,299.0938 " fill="#EEEEEE" style="stroke:#000000;stroke-width:1.5;"/><rect fill="none" height="104.5313" style="stroke:#000000;stroke-width:1.5;" width="420.9873" x="406.3306" y="299.0938"/><text fill="#000000" font-family="sans-serif" font-size="13" font-weight="bold" lengthAdjust="spacing" textLength="31.624" x="421.3306" y="312.1606">loop</text><text fill="#000000" font-family="sans-serif" font-size="11" font-weight="bold" lengthAdjust="spacing" textLength="181.4248" x="497.9546" y="311.3042">[Pendant que le jeu est actif]</text><polygon fill="#181818" points="722.7329,333.3594,732.7329,337.3594,722.7329,341.3594,726.7329,337.3594" style="stroke:#181818;stroke-width:1;"/><line style="stroke:#181818;stroke-width:1;" x1="472.1563" x2="728.7329" y1="337.3594" y2="337.3594"/><text fill="#000000" font-family="sans-serif" font-size="13" lengthAdjust="spacing" textLength="160.7671" x="479.1563" y="332.2935">Affiche "Mario avance..."</text><polygon fill="#181818" points="722.7329,362.4922,732.7329,366.4922,722.7329,370.4922,726.7329,366.4922" style="stroke:#181818;stroke-width:1;"/><line style="stroke:#181818;stroke-width:1;" x1="472.1563" x2="728.7329" y1="366.4922" y2="366.4922"/><text fill="#000000" font-family="sans-serif" font-size="13" lengthAdjust="spacing" textLength="119.3804" x="479.1563" y="361.4263">Affiche "Score : X"</text><polygon fill="#181818" points="722.7329,391.625,732.7329,395.625,722.7329,399.625,726.7329,395.625" style="stroke:#181818;stroke-width:1;"/><line style="stroke:#181818;stroke-width:1;" x1="472.1563" x2="728.7329" y1="395.625" y2="395.625"/><text fill="#000000" font-family="sans-serif" font-size="13" lengthAdjust="spacing" textLength="171.4692" x="479.1563" y="390.5591">V&#233;rifie &#233;v&#233;nements du jeu</text><polygon fill="#181818" points="722.7329,427.7578,732.7329,431.7578,722.7329,435.7578,726.7329,431.7578" style="stroke:#181818;stroke-width:1;"/><line style="stroke:#181818;stroke-width:1;" x1="472.1563" x2="728.7329" y1="431.7578" y2="431.7578"/><text fill="#000000" font-family="sans-serif" font-size="13" lengthAdjust="spacing" textLength="238.5767" x="479.1563" y="426.6919">Affiche "Game Over - Score final : X"</text><!--SRC=[ZP9DJiD038NtEON91bXGiUu22L64MgbGgMh5raeSC9hCXFd9cGZNc8lXIHgW8BNDrj_pUtuPBBoni321WiqQj9uBRb1xoEVQawsm8DXuLkpG2v83EjZCzycbIICe0omezCG3rdIlNrZJFdbdj3EAOCike8Ar3oMRNh6RPDaG1Qvkn0Qci8wTeiApqPeWVpIX9IKBLcahvPamGlxOYM96DUgIe3ndpPwnZoxwbE-DGlOB5kcOQ0gtLSN5wtyJKAYBsD5aCid_YFTyvwERACY1t8rr_F2Mt77B9LesqDZuwU4CreMnQNnzq6yMkngjJMxfBhWObc0hSUaoKyOqi29TfkBVmpT6pWDAeLK6yfsOR5ZQDt2IQhpW-J2_ZPtbIYgENHixJJLfxyR_9D6F5vS0U6f97iokjegrlAna_GK0]--></g></svg>